<svg t="1655371050872" class="icon" viewBox="0 0 1024 1024" version="1.1" xmlns="http://www.w3.org/2000/svg" p-id="3277" width="32" height="32"><path d="M716.608 1001.92L583.68 569.6 425.152 704l1.92 233.792a23.488 23.488 0 0 1-6.784 16.64l-39.232 40a23.488 23.488 0 0 1-38.72-8L257.28 766.72 29.184 668.736a23.488 23.488 0 0 1-7.552-38.08l39.104-40.064a23.616 23.616 0 0 1 17.984-7.04l239.36 11.648 134.72-165.312-435.328-138.24a23.488 23.488 0 0 1-9.664-38.912l74.688-76.288a23.552 23.552 0 0 1 19.2-6.976l536.832 54.08 152.128-152.512C851.2 9.792 909.248 0.128 938.496 0.128c27.584 0 51.584 8.064 64.64 21.12 31.744 31.68 30.144 121.984-55.168 209.024l-0.192 0.256-153.408 153.216 42.88 533.056a23.552 23.552 0 0 1-6.592 18.304l-74.816 76.352a23.488 23.488 0 0 1-39.232-9.6zM616.32 509.312l139.52 428.48 17.792-30.016-44.8-535.04a23.488 23.488 0 0 1 6.848-18.56l169.984-164.352c39.488-40.32 50.752-53.76 60.8-80.576 9.984-26.88-2.176-44.8-4.16-46.848-8.64-8.512-60.096-25.6-131.648 46.848L665.28 272.64a23.488 23.488 0 0 1-18.944 6.784l-524.8-49.088-34.496 22.464L512 383.744a23.488 23.488 0 0 1 11.136 37.248l-169.792 222.08a23.552 23.552 0 0 1-19.328 8.64L87.04 630.656l-7.808 8.064 216.704 72.576c5.76 2.56 10.368 7.232 12.672 13.12l57.28 211.072 6.912-7.04v-249.28c0-7.04 3.008-13.632 8.32-18.112L578.56 498.304a23.488 23.488 0 0 1 37.696 11.008z" fill="#1296db" p-id="3278"></path></svg>