<svg t="1655369968177" class="icon" viewBox="0 0 1028 1024" version="1.1" xmlns="http://www.w3.org/2000/svg" p-id="1292" width="32" height="32"><path d="M1013.734584 1011.11956a43.621563 43.621563 0 0 1-61.884578 0l-43.241716-43.150553a196.851607 196.851607 0 1 1 62.52272-61.231243l42.542799 42.542799a43.72792 43.72792 0 0 1 0.060775 61.838997z m-206.636451-329.858629a119.651621 119.651621 0 1 0 119.590846 119.727591 119.682009 119.682009 0 0 0-119.636427-119.727591z m-345.38675 47.404833a26.346148 26.346148 0 0 1-29.597633 27.956696h-141.39403c-20.830778 0-31.238569-9.268253-31.23857-27.956696a37.07301 37.07301 0 0 1 8.219877-21.271399q8.204683-9.800038 26.300566-29.628021a921.94803 921.94803 0 0 0 78.916891-95.41742 70.317169 70.317169 0 0 0 14.798817-39.352089 32.651598 32.651598 0 0 0-29.597633-32.970669c-17.533711 0-30.159806 12.155085-37.802315 36.161379-6.57894 20.815584-15.892774 31.299345-27.956697 31.299345a28.868328 28.868328 0 0 1-31.238569-29.628021q9.860813-85.465444 98.653711-95.265481 88.777705 4.786065 93.715708 87.060799 0 44.442031-73.994082 129.907474c-12.063922 14.282225-20.830778 24.614048-26.300566 31.299345h75.619825q32.849118 0 32.849118 27.804758z m402.880304-205.72482V357.783722a11.562525 11.562525 0 0 0-11.562525-11.547331H103.652956a11.562525 11.562525 0 0 0-11.562525 11.547331V867.689553a11.562525 11.562525 0 0 0 11.562525 11.547331h431.611887c6.38142 0 14.692459 60.319611 50.139727 91.16314H46.812738a46.827466 46.827466 0 0 1-46.812272-46.797079V166.341128a46.857854 46.857854 0 0 1 46.812272-46.949018h88.261114v46.797079a93.518188 93.518188 0 0 0 187.021182 0V119.39211H635.43794v46.797079a93.502994 93.502994 0 0 0 186.990795 0V119.39211h88.960031a46.721109 46.721109 0 0 1 46.660334 46.64514v408.106991c-39.838292-36.161379-93.502994-44.821877-93.502994-51.203297z m-135.574783-309.954676a46.766691 46.766691 0 0 1-46.766691-46.797079V48.4368a46.751497 46.751497 0 1 1 93.4878 0v117.752389a46.766691 46.766691 0 0 1-46.766691 46.797079z m-500.394477 0a46.797079 46.797079 0 0 1-46.766691-46.797079V48.4368a46.751497 46.751497 0 1 1 93.487801 0v117.752389a46.751497 46.751497 0 0 1-46.766691 46.797079z m328.658315 478.606486l-36.693164-0.607755a27.713595 27.713595 0 0 1-29.597633-24.765986 35.751145 35.751145 0 0 1 6.57894-19.752014l93.715708-169.259563a41.494423 41.494423 0 0 1 42.740319-24.614048q47.678322 3.19071 49.334452 52.570744l0.546979 51.659113-61.383181 50.443604V518.230849h-1.640936l-55.913393 116.840758H598.820746z" fill="#1296db" p-id="1293"></path></svg>