<svg t="1655372102284" class="icon" viewBox="0 0 1024 1024" version="1.1" xmlns="http://www.w3.org/2000/svg" p-id="5366" width="32" height="32"><path d="M851.564767 353.359585c-21.222798-21.222798-46.690155-46.690155-72.157513-67.912953 42.445596-21.222798 72.157513-63.668394 72.157513-110.358549 0-67.912953-67.912953-127.336788-148.559586-127.336788-16.978238 0-33.956477 4.24456-50.934715 8.48912-4.24456 0-8.489119 4.24456-12.733678 4.244559l-25.467358-25.467357c-55.179275-46.690155-127.336788-46.690155-182.516062 0-8.489119 12.733679-16.978238 25.467358-25.467358 33.956476-4.24456 0-8.489119-4.24456-12.733678-4.244559-16.978238-8.489119-33.956477-12.733679-50.934715-12.733679-80.646632 0-148.559585 55.179275-148.559586 127.336787 4.24456 38.201036 21.222798 76.402073 55.179275 97.624871C223.369948 298.180311 197.902591 323.647668 172.435233 344.870466c-80.646632 84.891192-118.847668 174.026943-118.847668 267.407254 0 246.184456 178.271503 407.47772 454.167875 407.47772 110.358549 0 207.98342-25.467358 284.385493-67.912953 118.847668-67.912953 178.271503-182.516062 178.271502-339.564767 0-84.891192-42.445596-174.026943-118.847668-258.918135zM304.01658 344.870466c8.489119-4.24456 16.978238-12.733679 21.222798-16.978238l8.489119-4.24456c21.222798-12.733679 29.711917-33.956477 29.711918-50.934715 0-16.978238-8.489119-33.956477-25.467358-42.445595L320.994819 217.533679c-25.467358-4.24456-38.201036-21.222798-38.201037-38.201037 0-21.222798 25.467358-42.445596 63.668394-42.445595 8.489119 0 12.733679 0 21.222798 4.244559 4.24456 0 4.24456 0 4.24456 4.24456l4.244559 4.244559c29.711917 16.978238 72.157513 4.24456 97.624871-21.222798l4.244559-4.244559c0-4.24456 8.489119-8.489119 12.733679-16.978238 21.222798-21.222798 46.690155-21.222798 67.912953 0 8.489119 8.489119 12.733679 12.733679 12.733679 16.978238l4.24456 4.244559c21.222798 25.467358 63.668394 33.956477 97.62487 16.978239l4.24456-4.24456s4.24456 0 4.244559-4.244559c8.489119-4.24456 12.733679-4.24456 21.222798-4.24456 38.201036 0 63.668394 21.222798 63.668394 42.445596 0 16.978238-16.978238 29.711917-38.201036 38.201036H724.227979c-8.489119 4.24456-12.733679 4.24456-12.733678 4.24456-25.467358 8.489119-42.445596 25.467358-46.690156 46.690155-4.24456 21.222798 8.489119 42.445596 25.467358 55.179275l8.489119 4.244559c8.489119 4.24456 12.733679 8.489119 21.222798 16.978239 25.467358 21.222798 46.690155 38.201036 67.912953 63.668394 63.668394 67.912953 97.62487 135.825907 97.624871 203.73886 0 267.407254-203.73886 322.586528-377.765804 322.586528-178.271503 0-369.276684-84.891192-369.276684-322.586528 0-72.157513 33.956477-144.315026 97.624871-212.22798 21.222798-12.733679 42.445596-33.956477 67.912953-50.934715z" fill="#1296db" p-id="5367"></path><path d="M384.663212 633.500518c-21.222798 0-38.201036 16.978238-38.201036 38.201036s16.978238 38.201036 38.201036 38.201037h84.891192v76.402072c0 16.978238 16.978238 33.956477 38.201036 33.956477s38.201036-12.733679 38.201037-33.956477v-76.402072h89.135751c21.222798 0 38.201036-16.978238 38.201036-38.201037s-16.978238-38.201036-38.201036-38.201036h-89.135751v-21.222798h89.135751c21.222798 0 38.201036-16.978238 38.201036-38.201036s-16.978238-38.201036-38.201036-38.201036h-72.157513l72.157513-76.402073c12.733679-12.733679 12.733679-38.201036 0-55.179274-12.733679-12.733679-38.201036-12.733679-50.934715 0L512 480.696373l-72.157513-76.402072c-12.733679-12.733679-38.201036-12.733679-50.934715 0-12.733679 12.733679-12.733679 38.201036 0 55.179274l72.157513 76.402073H384.663212c-21.222798 0-38.201036 16.978238-38.201036 38.201036s16.978238 38.201036 38.201036 38.201036h84.891192v21.222798H384.663212z" fill="#1296db" p-id="5368"></path></svg>