<svg t="1655371813778" class="icon" viewBox="0 0 1024 1024" version="1.1" xmlns="http://www.w3.org/2000/svg" p-id="5106" width="32" height="32"><path d="M917.504 206.6432v44.6464c0 52.6336-42.8032 95.6416-95.6416 95.6416h-55.5008v-140.288H917.504m65.536-65.536H701.0304v271.36h121.0368c89.088 0 161.1776-72.0896 161.1776-161.1776V141.1072h-0.2048z" fill="#1296db" p-id="5107"></path><path d="M700.8256 206.6432v209.7152c0 65.536-25.6 127.3856-71.8848 173.6704-46.4896 46.4896-108.1344 71.8848-173.6704 71.8848H352.256c-65.536 0-127.3856-25.6-173.6704-71.8848C132.096 543.5392 106.496 481.8944 106.496 416.3584V206.6432h594.3296m65.536-65.536H40.96v275.2512c0 171.8272 139.264 311.0912 311.0912 311.0912h103.0144c171.8272 0 311.0912-139.264 311.0912-311.0912V141.1072h0.2048z" p-id="5108" fill="#1296db"></path><path d="M766.3616 817.3568H40.96v65.536h725.4016v-65.536z" fill="#1296db" p-id="5109"></path></svg>